HIERARCHY
ROOT Hips
{
 OFFSET 0.000000 0.000000 0.000000
 CHANNELS 6 Xposition Yposition Zposition Yrotation Xrotation Zrotation
 JOINT Chest
 {
  OFFSET 0.000000 9.588913 -0.003946
  CHANNELS 3 Yrotation Xrotation Zrotation
  JOINT Chest2
  {
   OFFSET 0.000000 9.541882 0.008053
   CHANNELS 3 Yrotation Xrotation Zrotation
   JOINT Chest3
   {
    OFFSET 0.000000 9.501360 0.000000
    CHANNELS 3 Yrotation Xrotation Zrotation
    JOINT Chest4
    {
     OFFSET 0.000000 9.491660 0.000000
     CHANNELS 3 Yrotation Xrotation Zrotation
     JOINT Neck
     {
      OFFSET 0.000000 14.331917 0.000000
      CHANNELS 3 Yrotation Xrotation Zrotation
      JOINT Head
      {
       OFFSET 0.000000 8.884799 0.017034
       CHANNELS 3 Yrotation Xrotation Zrotation
       End Site
       {
        OFFSET 0.000000 16.896195 0.008993
       }
      }
     }
     JOINT RightCollar
     {
      OFFSET -2.923010 9.499495 0.000000
      CHANNELS 3 Yrotation Xrotation Zrotation
      JOINT RightShoulder
      {
       OFFSET -13.795216 0.000000 0.000000
       CHANNELS 3 Yrotation Xrotation Zrotation
       JOINT RightElbow
       {
        OFFSET -30.272209 0.000000 0.000000
        CHANNELS 3 Yrotation Xrotation Zrotation
        JOINT RightWrist
        {
         OFFSET -24.478199 0.000000 0.000000
         CHANNELS 3 Yrotation Xrotation Zrotation
         End Site
         {
          OFFSET -18.090752 0.000000 0.000000
         }
        }
       }
      }
     }
     JOINT LeftCollar
     {
      OFFSET 2.923010 9.499495 0.000000
      CHANNELS 3 Yrotation Xrotation Zrotation
      JOINT LeftShoulder
      {
       OFFSET 13.795216 0.000000 0.000000
       CHANNELS 3 Yrotation Xrotation Zrotation
       JOINT LeftElbow
       {
        OFFSET 30.272209 0.000000 0.000000
        CHANNELS 3 Yrotation Xrotation Zrotation
        JOINT LeftWrist
        {
         OFFSET 24.478199 0.000000 0.000000
         CHANNELS 3 Yrotation Xrotation Zrotation
         End Site
         {
          OFFSET 18.090752 0.000000 0.000000
         }
        }
       }
      }
     }
    }
   }
  }
 }
 JOINT RightHip
 {
  OFFSET -7.826875 0.019532 0.001973
  CHANNELS 3 Yrotation Xrotation Zrotation
  JOINT RightKnee
  {
   OFFSET 0.000000 -40.546152 -0.001885
   CHANNELS 3 Yrotation Xrotation Zrotation
   JOINT RightAnkle
   {
    OFFSET 0.000000 -39.417092 -0.003189
    CHANNELS 3 Yrotation Xrotation Zrotation
    JOINT RightToe
    {
     OFFSET 0.000000 -7.579396 17.243563
     CHANNELS 3 Yrotation Xrotation Zrotation
     End Site
     {
      OFFSET 0.000000 -1.500329 6.694466
     }
    }
   }
  }
 }
 JOINT LeftHip
 {
  OFFSET 7.826875 0.019532 0.001973
  CHANNELS 3 Yrotation Xrotation Zrotation
  JOINT LeftKnee
  {
   OFFSET 0.000000 -40.546152 -0.001885
   CHANNELS 3 Yrotation Xrotation Zrotation
   JOINT LeftAnkle
   {
    OFFSET 0.000000 -39.417092 -0.003189
    CHANNELS 3 Yrotation Xrotation Zrotation
    JOINT LeftToe
    {
     OFFSET 0.000000 -7.579396 17.243563
     CHANNELS 3 Yrotation Xrotation Zrotation
     End Site
     {
      OFFSET 0.000000 -1.500329 6.694466
     }
    }
   }
  }
 }
}
MOTION
Frames: 12
Frame Time: 0.008333
57.513188 53.613661 -51.027010 51.782304 -21.150323 2.359744 -6.463439 21.046793 -2.507801 -3.382605 12.089206 -0.702289 -4.276348 15.103237 -0.998142 -3.382605 12.089206 -0.702289 -7.685820 20.712774 -7.113582 -11.886020 2.457134 -10.680679 21.070031 -5.177826 -14.419613 7.797963 -25.258200 36.492743 95.146159 -12.335075 29.987970 12.268945 0.285705 -26.012335 3.384756 -10.106951 -1.166373 -19.460467 -31.143594 -35.369193 -81.843980 -10.654056 -36.711185 -4.790798 -6.023790 31.121925 -5.176311 -61.247758 -10.383686 160.597503 79.156266 147.676017 -0.274502 -17.530215 9.396791 0.281244 -0.714791 0.122616 0.190063 -56.752136 -16.206486 136.892840 78.526250 141.303656 0.512425 -20.163106 -5.646307 0.192978 0.823392 0.082103
57.512784 53.613956 -51.026444 51.779721 -21.151979 2.358020 -6.463225 21.045111 -2.506258 -3.382658 12.089087 -0.702044 -4.276406 15.103090 -0.997835 -3.382658 12.089087 -0.702044 -7.689929 20.717596 -7.116929 -11.892677 2.465849 -10.685792 21.070060 -5.179376 -14.418868 7.785520 -25.242994 36.515042 95.129013 -12.316772 29.996223 12.259138 0.305547 -26.009318 3.377435 -10.079470 -1.167239 -19.460715 -31.165432 -35.345379 -81.838636 -10.682708 -36.713574 -4.802409 -6.011121 31.116651 -5.180293 -61.244260 -10.374761 160.604744 79.158238 147.683010 -0.279459 -17.531139 9.396271 0.284712 -0.714455 0.124417 0.191197 -56.749740 -16.204834 136.894331 78.526142 141.305011 0.517002 -20.163368 -5.643526 0.190102 0.823364 0.080537
57.512716 53.614487 -51.025444 51.778022 -21.156131 2.355484 -6.463534 21.044060 -2.504908 -3.383056 12.089083 -0.702514 -4.276922 15.103080 -0.998439 -3.383056 12.089083 -0.702514 -7.691932 20.722659 -7.119724 -11.895683 2.475076 -10.690526 21.070455 -5.175440 -14.416464 7.772861 -25.229790 36.535204 95.116768 -12.297561 30.008845 12.251212 0.327466 -26.015833 3.369401 -10.050250 -1.166557 -19.465502 -31.185695 -35.320606 -81.825806 -10.719815 -36.717291 -4.815033 -6.001818 31.115131 -5.185896 -61.238560 -10.364815 160.614217 79.159101 147.692192 -0.285543 -17.530892 9.396925 0.287464 -0.715650 0.125275 0.185227 -56.745663 -16.199278 136.897354 78.525245 141.308126 0.519920 -20.163150 -5.644926 0.190352 0.822117 0.080693
57.512959 53.615118 -51.024286 51.779043 -21.161543 2.352759 -6.464808 21.044171 -2.504396 -3.383705 12.088838 -0.702920 -4.277749 15.102768 -0.998968 -3.383705 12.088838 -0.702920 -7.692679 20.728198 -7.122406 -11.896460 2.485216 -10.695444 21.068635 -5.169297 -14.413200 7.762163 -25.214507 36.553618 95.108150 -12.277732 30.024991 12.249403 0.355636 -26.032283 3.358063 -10.016745 -1.165683 -19.473446 -31.206038 -35.296296 -81.804733 -10.759793 -36.720950 -4.827996 -5.997167 31.117964 -5.192098 -61.232126 -10.357522 160.626075 79.158566 147.703299 -0.290540 -17.530594 9.399867 0.289330 -0.718059 0.124428 0.176487 -56.740712 -16.194515 136.906447 78.525083 141.318102 0.522165 -20.162627 -5.647815 0.192247 0.820452 0.081517
57.512980 53.615523 -51.023385 51.781896 -21.163799 2.350128 -6.466233 21.042928 -2.503928 -3.384092 12.087759 -0.702324 -4.278209 15.101424 -0.998220 -3.384092 12.087759 -0.702324 -7.693503 20.734284 -7.125955 -11.897144 2.496335 -10.701940 21.061346 -5.162472 -14.412409 7.757217 -25.193939 36.571225 95.100838 -12.254289 30.038191 12.251651 0.389109 -26.055814 3.343431 -9.976580 -1.164469 -19.481884 -31.229444 -35.274858 -81.780099 -10.798088 -36.722501 -4.841422 -5.992565 31.124638 -5.196900 -61.229765 -10.353493 160.640031 79.157550 147.716856 -0.293011 -17.529352 9.404057 0.291247 -0.721468 0.122831 0.168520 -56.737805 -16.192093 136.912695 78.526760 141.327568 0.522323 -20.164358 -5.650990 0.195534 0.821588 0.082420
57.512790 53.615543 -51.023294 51.786119 -21.160805 2.350228 -6.470254 21.037927 -2.506544 -3.384109 12.086201 -0.701561 -4.278195 15.099484 -0.997244 -3.384109 12.086201 -0.701561 -7.693747 20.739953 -7.129378 -11.896797 2.506700 -10.708355 21.050991 -5.154229 -14.413180 7.756901 -25.170327 36.587173 95.094921 -12.223705 30.045609 12.250524 0.418845 -26.081315 3.328321 -9.935854 -1.161358 -19.490954 -31.247202 -35.256660 -81.756859 -10.836835 -36.720969 -4.854982 -5.984428 31.137213 -5.196237 -61.234241 -10.356922 160.655183 79.155863 147.733160 -0.296633 -17.527242 9.407058 0.294350 -0.724853 0.122403 0.165857 -56.738785 -16.197099 136.906025 78.530519 141.325442 0.521466 -20.167278 -5.653548 0.198180 0.825666 0.083032
57.512299 53.615256 -51.023291 51.788022 -21.154821 2.350372 -6.471893 21.031336 -2.508910 -3.383323 12.084655 -0.701179 -4.277184 15.097558 -0.996721 -3.383323 12.084655 -0.701179 -7.693855 20.744885 -7.130470 -11.896858 2.515787 -10.710547 21.039796 -5.145139 -14.412427 7.756402 -25.145988 36.602035 95.086866 -12.189050 30.050647 12.244601 0.445499 -26.100877 3.308434 -9.900607 -1.155330 -19.499941 -31.246915 -35.237713 -81.737842 -10.882822 -36.711422 -4.870142 -5.972767 31.153550 -5.194547 -61.241220 -10.358467 160.662032 79.154601 147.742490 -0.303142 -17.525870 9.408767 0.296745 -0.726401 0.123104 0.164583 -56.743040 -16.200065 136.894490 78.532762 141.316857 0.519950 -20.170420 -5.655088 0.199372 0.829548 0.083734
57.511642 53.614849 -51.022564 51.786800 -21.149725 2.347206 -6.467943 21.026354 -2.508018 -3.382347 12.083255 -0.701012 -4.275943 15.095812 -0.996463 -3.382347 12.083255 -0.701012 -7.693945 20.749722 -7.129170 -11.897581 2.524786 -10.708398 21.029483 -5.136787 -14.409796 7.755243 -25.120197 36.616222 95.074081 -12.156358 30.056636 12.237429 0.472278 -26.114037 3.282548 -9.870815 -1.147991 -19.507294 -31.226411 -35.210082 -81.723341 -10.942807 -36.693736 -4.889404 -5.957410 31.169037 -5.196108 -61.245250 -10.351626 160.660277 79.154676 147.742988 -0.308981 -17.525466 9.411235 0.295734 -0.726795 0.123594 0.157557 -56.747733 -16.191665 136.893641 78.532091 141.315649 0.518403 -20.174612 -5.656519 0.199768 0.831911 0.085253
57.511679 53.614547 -51.021349 51.785334 -21.149225 2.343704 -6.464323 21.025991 -2.508550 -3.381942 12.082292 -0.701176 -4.275434 15.094608 -0.996644 -3.381942 12.082292 -0.701176 -7.692884 20.754470 -7.126727 -11.896545 2.533690 -10.704509 21.020098 -5.130498 -14.406997 7.756339 -25.094608 36.627795 95.055486 -12.130029 30.064819 12.230959 0.498014 -26.122775 3.256716 -9.846191 -1.141398 -19.514452 -31.193803 -35.172094 -81.711468 -11.015214 -36.674611 -4.911629 -5.940121 31.183880 -5.195198 -61.243514 -10.346336 160.662898 79.154563 147.746798 -0.312333 -17.527107 9.414985 0.292605 -0.727187 0.123902 0.148556 -56.748419 -16.182040 136.901833 78.529982 141.321526 0.520528 -20.179042 -5.658099 0.197390 0.832899 0.086284
57.512345 53.614240 -51.020088 51.784581 -21.151488 2.341211 -6.463841 21.028484 -2.511666 -3.381845 12.081656 -0.701410 -4.275316 15.093812 -0.996928 -3.381845 12.081656 -0.701410 -7.691224 20.758599 -7.124259 -11.894405 2.541458 -10.700718 21.008676 -5.124712 -14.406137 7.757764 -25.073403 36.636997 95.032699 -12.109743 30.077652 12.225126 0.522038 -26.127687 3.233062 -9.827363 -1.135982 -19.521793 -31.155391 -35.130509 -81.701209 -11.090297 -36.657139 -4.935177 -5.922875 31.200348 -5.190933 -61.239066 -10.345355 160.671264 79.153295 147.756189 -0.314750 -17.530230 9.417881 0.290048 -0.727861 0.125018 0.142058 -56.746500 -16.176791 136.915572 78.528060 141.333413 0.524895 -20.182507 -5.658450 0.193378 0.832824 0.085688
57.513078 53.613742 -51.018929 51.784083 -21.153385 2.338469 -6.464572 21.030306 -2.514464 -3.381976 12.080617 -0.701908 -4.275491 15.092508 -0.997547 -3.381976 12.080617 -0.701908 -7.689805 20.762400 -7.122726 -11.892419 2.548583 -10.698537 20.995619 -5.116152 -14.405348 7.756300 -25.058287 36.642741 95.009742 -12.093109 30.096773 12.217015 0.545434 -26.131165 3.212412 -9.813345 -1.130254 -19.526107 -31.116806 -35.091737 -81.692708 -11.160942 -36.644533 -4.957513 -5.904963 31.214571 -5.185905 -61.235218 -10.344755 160.682655 79.151479 147.769914 -0.318818 -17.533442 9.418675 0.289675 -0.728660 0.127421 0.137388 -56.744927 -16.172378 136.939567 78.527858 141.356910 0.528565 -20.185885 -5.657674 0.191650 0.832822 0.084754
57.513642 53.613050 -51.017741 51.782923 -21.154639 2.334310 -6.464983 21.031842 -2.515186 -3.382262 12.079041 -0.703092 -4.275881 15.090527 -0.999027 -3.382262 12.079041 -0.703092 -7.688142 20.765974 -7.122219 -11.889683 2.555254 -10.698275 20.983491 -5.106024 -14.403207 7.752466 -25.047208 36.644337 94.989495 -12.076409 30.117097 12.209392 0.567982 -26.135298 3.195974 -9.804616 -1.122346 -19.521333 -31.087698 -35.061153 -81.686534 -11.223038 -36.643691 -4.972289 -5.885987 31.222394 -5.181105 -61.231514 -10.342363 160.692509 79.149677 147.784265 -0.324517 -17.537376 9.417302 0.291133 -0.728724 0.130755 0.132252 -56.744635 -16.165999 136.971807 78.527830 141.390793 0.530916 -20.188563 -5.658598 0.193193 0.831970 0.085007
